<svg xmlns="http://www.w3.org/2000/svg" viewBox="0 0 667 594" width="667" height="594">
	<style>
		tspan { white-space:pre }
		.shp0 { fill: #ffffff } 
	</style>
	<g id="Layer">
		<path id="Fill-3 copy" fill-rule="evenodd" class="shp0" d="M623.1 368.7C624.2 375.9 624.8 383.2 624.8 390.6C624.8 502.8 494.2 593.7 333.1 593.7C172 593.7 41.4 502.8 41.4 390.6C41.4 383.1 42 375.7 43.1 368.5C17.7 357.1 0 331.6 0 302C0 261.8 32.6 229.1 72.9 229.1C92.5 229.1 110.2 236.8 123.3 249.4C173.9 212.9 243.9 189.6 321.8 187.6C321.8 186.6 321.6 185.7 321.8 184.7L358.2 13.2C358.9 9.8 360.9 6.9 363.8 5C366.7 3.1 370.2 2.5 373.6 3.2L494.8 29C503.3 11.8 520.8 -0.1 541.3 -0.1C570.1 -0.1 593.4 23.2 593.4 52C593.4 80.8 570.1 104.1 541.3 104.1C513.4 104.1 490.8 82.1 489.5 54.5L381 31.4L347.8 187.7C424.3 190.4 493 213.6 542.8 249.6C555.9 236.9 573.7 229.1 593.4 229.1C633.7 229.1 666.3 261.7 666.3 302C666.3 331.8 648.4 357.3 623.1 368.7ZM456.8 472.6C451.5 467.3 443 467.3 437.7 472.6C415.3 495 367.3 503 333.1 503C298.8 503 250.9 495 228.5 472.6C223.2 467.3 214.7 467.3 209.4 472.6C204.1 477.9 204.1 486.4 209.4 491.7C244.9 527.2 313.1 530 333.1 530C353.1 530 421.2 527.2 456.8 491.7C462 486.4 462 477.9 456.8 472.6ZM218.4 406.2C247.1 406.2 270.5 382.8 270.5 354.1C270.5 325.4 247.1 302 218.4 302C189.7 302 166.3 325.4 166.3 354.1C166.3 382.8 189.7 406.2 218.4 406.2ZM499.7 354.1C499.7 325.4 476.3 302 447.6 302C418.9 302 395.5 325.4 395.5 354.1C395.5 382.8 418.9 406.2 447.6 406.2C476.3 406.2 499.7 382.8 499.7 354.1Z" />
		<path id="Shape 1" class="shp0" d="" />
	</g>
</svg>